<svg xmlns="http://www.w3.org/2000/svg" width="174" height="39" viewBox="0 0 174 39" fill="none"><g clip-path="url(#clip0_1920_438)"><path d="M25.2928 4.70611L7.84692 15.9608V28.0199C7.84692 29.754 9.26308 31.1653 11.0031 31.1653H24.9859C26.7259 31.1653 28.1421 29.754 28.1421 28.0199V15.9608L21.025 11.3414L25.2493 8.62224L32.7241 13.4849V30.0141C32.7241 33.1667 30.1455 35.7293 26.9821 35.7293H8.99967C5.83625 35.7293 3.26492 33.1667 3.26492 30.0141V13.4945L21.0613 1.95566L18.0646 0L0 11.7051V30.3368C0.174 35.1441 4.14458 39 8.99967 39H26.9773C31.842 39 35.8029 35.1465 35.9769 30.3368V11.7123L25.2928 4.70611ZM24.8578 17.7334V27.8922H11.1215V17.7334L18.009 13.2874L24.8578 17.7334Z" fill="#212427"></path><path d="M51.8599 31.4785C49.1895 31.4785 46.913 30.5753 45.2769 28.8629C43.7085 27.2228 42.8457 24.901 42.8457 22.324C42.8457 16.9339 46.5625 13.1719 51.884 13.1719C56.0407 13.1719 58.8682 15.1613 60.0645 18.9257L60.149 19.193H56.8237L56.7705 19.0702C55.845 16.9796 54.337 16.0476 51.8865 16.0476C50.1851 16.0476 48.74 16.6762 47.7105 17.8659C46.7341 18.9955 46.1952 20.5779 46.1952 22.324C46.1952 24.0701 46.7341 25.6549 47.7105 26.782C48.74 27.9718 50.1851 28.6004 51.8865 28.6004C54.378 28.6004 56.0214 27.5864 56.7657 25.5898L56.8165 25.4574H60.1345L60.0717 25.7103C59.1872 29.2675 56.0407 31.4761 51.8647 31.4761L51.8599 31.4785Z" fill="#212427"></path><path d="M65.195 13.4873H61.9688V31.1629H65.195V13.4873Z" fill="#212427"></path><path d="M73.6213 31.5025C71.7556 31.5025 70.0639 30.8354 68.8556 29.6215C67.6328 28.3932 66.9609 26.6519 66.9609 24.7179C66.9609 22.7839 67.6328 21.0378 68.8556 19.8047C70.0639 18.5836 71.758 17.9116 73.6213 17.9116C75.4845 17.9116 77.1786 18.5836 78.3869 19.8047C79.6098 21.0378 80.2816 22.7839 80.2816 24.7179C80.2816 26.6519 79.6098 28.3932 78.3869 29.6215C77.1786 30.8329 75.4869 31.5025 73.6213 31.5025ZM73.6213 20.6211C71.6299 20.6211 70.1872 22.3456 70.1872 24.7203C70.1872 27.095 71.6324 28.8195 73.6213 28.8195C75.6102 28.8195 77.0554 27.095 77.0554 24.7203C77.0554 22.3456 75.6102 20.6211 73.6213 20.6211Z" fill="#212427"></path><path d="M86.6657 31.5025C83.4902 31.5025 81.436 29.8792 81.1702 27.1576L81.1484 26.9336H84.3384L84.3674 27.1022C84.5873 28.357 85.3341 28.9399 86.714 28.9399C87.729 28.9399 88.8141 28.5617 88.8141 27.4996C88.8141 26.5603 87.9997 26.3267 86.1558 25.8908C86.0156 25.8571 85.8706 25.8233 85.7208 25.7872C82.9054 25.1442 81.5351 23.8773 81.5351 21.912C81.5351 19.6312 83.6884 17.9092 86.5449 17.9092C89.5464 17.9092 91.5087 19.506 91.7963 22.1794L91.8204 22.4058H88.744L88.7199 22.2299C88.6619 21.8109 88.3259 20.4477 86.4965 20.4477C85.4864 20.4477 84.6623 21.0498 84.6623 21.7916C84.6623 22.8417 86.018 23.1524 88.0698 23.6244C90.7039 24.2 92.0403 25.4573 92.0403 27.3551C92.0403 28.6027 91.4749 29.6648 90.4067 30.4259C89.4328 31.1195 88.1036 31.5001 86.6657 31.5001V31.5025Z" fill="#212427"></path><path d="M93.7659 31.1655V18.2514H96.9679V31.1655H93.7659ZM93.6934 16.7028V13.5356H97.0404V16.7028H93.6934Z" fill="#212427"></path><path d="M107.62 31.1653V23.7304C107.62 21.6086 106.914 20.6211 105.399 20.6211C103.564 20.6211 102.595 22.006 102.595 24.624V31.1653H99.3691V18.2512H102.571V19.8456C103.277 18.6197 104.541 17.9116 106.102 17.9116C109.145 17.9116 110.822 19.7709 110.822 23.1476V31.1629H107.62V31.1653Z" fill="#212427"></path><path d="M131.23 13.4873H128.004V31.1653H131.23V13.4873Z" fill="#212427"></path><path d="M139.656 31.5025C137.791 31.5025 136.097 30.8354 134.891 29.6215C133.668 28.3932 132.996 26.6519 132.996 24.7179C132.996 22.7839 133.668 21.0378 134.891 19.8047C136.099 18.5836 137.793 17.9116 139.656 17.9116C141.52 17.9116 143.214 18.5836 144.422 19.8047C145.645 21.0378 146.317 22.7839 146.317 24.7179C146.317 26.6519 145.645 28.3932 144.422 29.6215C143.214 30.8329 141.522 31.5025 139.656 31.5025ZM139.656 20.6211C137.665 20.6211 136.222 22.3456 136.222 24.7203C136.222 27.095 137.668 28.8195 139.656 28.8195C141.645 28.8195 143.09 27.095 143.09 24.7203C143.09 22.3456 141.645 20.6211 139.656 20.6211Z" fill="#212427"></path><path d="M154.214 31.5025C152.314 31.5025 150.591 30.8426 149.359 29.6432C148.083 28.4004 147.406 26.6977 147.406 24.7203C147.406 20.7127 150.205 17.9141 154.212 17.9141C157.331 17.9141 159.593 19.6265 160.115 22.3866L160.161 22.6298H157.075L157.027 22.4949C156.553 21.204 155.589 20.5489 154.163 20.5489C152.056 20.5489 150.582 22.2637 150.582 24.7227C150.582 27.1818 152.053 28.8725 154.163 28.8725C155.664 28.8725 156.672 28.1789 157.073 26.8639L157.116 26.7193H160.215L160.164 26.965C159.569 29.8503 157.399 31.5049 154.212 31.5049L154.214 31.5025Z" fill="#212427"></path><path d="M170.031 31.1653L166.06 26.0233L165.07 27.03V31.1653H161.846V13.4873H165.07V23.1211L169.729 18.2512H173.678L168.221 23.8171L173.999 31.1653H170.031Z" fill="#212427"></path><path d="M119.355 36.5506C115.911 36.5506 113.468 34.79 113.132 32.0661L113.103 31.8373H116.274L116.303 32.0059C116.535 33.3257 117.494 33.9398 119.328 33.9398C121.3 33.9398 122.303 32.8705 122.303 30.7583V29.1639C121.498 30.3537 120.063 31.0666 118.383 31.0666C116.704 31.0666 115.147 30.4428 114.087 29.2602C113.033 28.0849 112.475 26.4399 112.475 24.5011C112.475 22.5623 113.033 20.9125 114.087 19.73C115.147 18.5402 116.634 17.9116 118.383 17.9116C120.027 17.9116 121.489 18.6655 122.303 19.8841V18.2488H125.602V30.4428C125.602 33.0415 124.292 36.5482 119.355 36.5482V36.5506ZM119.135 20.6211C117.153 20.6211 115.822 22.1818 115.822 24.5035C115.822 26.8253 117.122 28.3619 119.135 28.3619C121.148 28.3619 122.448 26.9457 122.448 24.5758C122.448 21.8446 120.783 20.6211 119.135 20.6211Z" fill="#212427"></path></g><defs><clipPath id="clip0_1920_438"><rect width="174" height="39" fill="white"></rect></clipPath></defs></svg>